PathFileType	4	(X/Y/Z)	./resultDataOpenSim/trcMotMarkerGrf/sub09/qtm-12-06.trc
DataRate	CameraRate	NumFrames	NumMarkers	Units	OrigDataRate	OrigDataStartFrame	OrigNumFrames
250.000000	250.000000	10	24	m	250.000000	181	480
Frame#	Time	L.Toe.Tip			R.Toe.Tip			L.Ankle.Lat			R.Ankle.Lat			L.Ankle.Med			R.Ankle.Med			L.Heel			R.Heel			L.Knee.Lat			R.Knee.Lat			L.Knee.Med			R.Knee.Med			L.Thigh.Upper			R.Thigh.Upper			L.ASIS			R.ASIS			V.Sacral			L.Acromium			R.Acromium			C7			L.Elbow			R.Elbow			L.Wrist.Lat			R.Wrist.Lat
		X1	Y1	Z1	X2	Y2	Z2	X3	Y3	Z3	X4	Y4	Z4	X5	Y5	Z5	X6	Y6	Z6	X7	Y7	Z7	X8	Y8	Z8	X9	Y9	Z9	X10	Y10	Z10	X11	Y11	Z11	X12	Y12	Z12	X13	Y13	Z13	X14	Y14	Z14	X15	Y15	Z15	X16	Y16	Z16	X17	Y17	Z17	X18	Y18	Z18	X19	Y19	Z19	X20	Y20	Z20	X21	Y21	Z21	X22	Y22	Z22	X23	Y23	Z23	X24	Y24	Z24

181	0.72	0.16275097	0.016783539	0.0010700832	-0.61731027	0.04983581	0.10777465	0.015582389	0.048714886	-0.048986249	-0.70035931	0.17282058	0.1481567	0.028310268	0.068933131	0.047932468	-0.65661427	0.18432265	0.059397631	-0.057581651	0.012206898	-0.0079277654	-0.75451095	0.20282388	0.090519792	0.016344322	0.46454806	-0.097521831	-0.32727942	0.44056545	0.20493125	0.0071895546	0.46572784	0.029117419	-0.32866447	0.42205123	0.080537565	-0.18929139	0.83043284	-0.14351317	-0.25218661	0.83078517	0.22771605	-0.12884379	0.91745725	-0.072296013	-0.1382075	0.91073626	0.16815631	-0.29996228	0.96542604	0.036926561	-0.16091889	1.3580185	-0.14036765	-0.18825823	1.3853498	0.19056454	-0.23991518	1.4204521	0.021482492	-0.31214403	1.0251921	-0.1868621	-0.31507346	1.039698	0.27966126	-0.21372542	0.78695511	-0.24513952	-0.13000716	0.83676802	0.29658321
182	0.724	0.16294863	0.01650654	0.0011516391	-0.61439805	0.051648906	0.10814786	0.015888933	0.048572642	-0.048996341	-0.69249932	0.17845567	0.14857219	0.028670162	0.068825069	0.047987026	-0.64800723	0.1884164	0.060306637	-0.057478472	0.012239417	-0.0079996204	-0.74498272	0.20999755	0.090361587	0.021494357	0.46420084	-0.098308771	-0.31592324	0.43940166	0.20548476	0.013282708	0.46583438	0.028391302	-0.31620701	0.41977004	0.08099371	-0.18319589	0.8313271	-0.14453084	-0.24423059	0.83020334	0.22731969	-0.1221428	0.91859289	-0.073413507	-0.13108206	0.91074978	0.16701432	-0.29431216	0.96571204	0.03550006	-0.15355655	1.358424	-0.14081904	-0.18115973	1.3859623	0.18999907	-0.23292617	1.4209134	0.021015256	-0.30456752	1.0255749	-0.18717495	-0.30865635	1.0408337	0.27874238	-0.20534486	0.78739371	-0.24531755	-0.12544679	0.8362847	0.29639425
183	0.728	0.16302253	0.016292136	0.0013393931	-0.61113654	0.05354819	0.1085648	0.016082803	0.048429954	-0.049014501	-0.6839952	0.18404942	0.1490177	0.028823984	0.068708239	0.04804999	-0.63880909	0.1922541	0.061141163	-0.057464115	0.012232386	-0.0080839381	-0.73488536	0.21707536	0.090333004	0.026267269	0.46360258	-0.098940261	-0.30443796	0.43828717	0.20591151	0.018975944	0.46560669	0.027656171	-0.30336042	0.41755485	0.081198768	-0.17710542	0.83217144	-0.14546204	-0.23636144	0.82969299	0.22686091	-0.11547935	0.91976143	-0.074500034	-0.12410063	0.91086185	0.16590535	-0.28903169	0.96578996	0.033836303	-0.14622652	1.3588814	-0.14126473	-0.17400746	1.3866062	0.18944508	-0.22589223	1.4214313	0.020527481	-0.29698816	1.0259863	-0.1875663	-0.30227935	1.0420187	0.27788187	-0.19690097	0.78789144	-0.2454671	-0.12092166	0.83587206	0.29619533
184	0.732	0.16303357	0.016122709	0.0015800348	-0.60748177	0.055522389	0.109014	0.016229297	0.048299853	-0.049028547	-0.67481751	0.18958672	0.1495205	0.028871758	0.068593951	0.048113416	-0.62914504	0.19585934	0.061905081	-0.057495712	0.012212668	-0.0081737063	-0.72439553	0.22401563	0.090590889	0.030791101	0.46268304	-0.099359189	-0.29285996	0.43724203	0.20622621	0.024335628	0.46510241	0.026934308	-0.29000952	0.4154332	0.081106899	-0.17098136	0.83297282	-0.14626944	-0.22858684	0.82927326	0.22634741	-0.10887663	0.92094716	-0.07553513	-0.11726586	0.91108106	0.16484914	-0.28353913	0.96572797	0.032633813	-0.13891954	1.3593904	-0.14169234	-0.16681366	1.3872846	0.18891485	-0.21884124	1.4220061	0.020047437	-0.28941493	1.0264151	-0.18807227	-0.29594993	1.0432494	0.27709371	-0.18839278	0.78844707	-0.24558326	-0.11642841	0.83552766	0.29598628
185	0.736	0.16303676	0.015982367	0.0017988772	-0.6033802	0.057563155	0.10949246	0.016378949	0.048175163	-0.049036319	-0.66503881	0.19501437	0.15006419	0.028912086	0.068495154	0.048161908	-0.61913581	0.19932471	0.062625495	-0.057537784	0.012202846	-0.0082594017	-0.71362759	0.23077751	0.091112574	0.035160214	0.46157065	-0.099670734	-0.28131213	0.43629364	0.20645864	0.02947961	0.46441233	0.026286865	-0.27622934	0.41347394	0.080804078	-0.16481058	0.83373369	-0.14692275	-0.22098741	0.82895218	0.22582127	-0.10234645	0.92213406	-0.076506457	-0.11057651	0.91140789	0.16386644	-0.27747436	0.96582398	0.032145035	-0.13161413	1.3599503	-0.14208598	-0.15958548	1.3879984	0.18842567	-0.21179208	1.4226503	0.019595748	-0.28185511	1.0268634	-0.18867222	-0.28968836	1.0445147	0.27638064	-0.17981383	0.78905496	-0.24565913	-0.11197075	0.83524615	0.29576876
186	0.74	0.16305544	0.015863094	0.0019439877	-0.59877383	0.059665081	0.11001752	0.016556201	0.048041581	-0.049047306	-0.65482536	0.20024489	0.15059298	0.028998465	0.068419396	0.04818242	-0.60882715	0.20271812	0.063321374	-0.057571985	0.012211174	-0.0083391145	-0.70256703	0.23733699	0.091722438	0.039346445	0.46054753	-0.10004526	-0.26987747	0.43546921	0.20662446	0.034388397	0.46362342	0.025723409	-0.26233195	0.41178965	0.080477443	-0.15863567	0.8344691	-0.14741381	-0.21361177	0.82873374	0.22530821	-0.095886553	0.9233028	-0.077412397	-0.10403024	0.91184188	0.16297518	-0.27089183	0.96628216	0.032094788	-0.12430424	1.3605605	-0.14244251	-0.1523426	1.388747	0.18798301	-0.20475568	1.4233802	0.019170366	-0.2743012	1.0273396	-0.18930351	-0.28351181	1.0457948	0.2757339	-0.17116359	0.78971102	-0.24569125	-0.10754976	0.83502166	0.29555054
187	0.744	0.16308171	0.015757094	0.0020098252	-0.59360145	0.061834437	0.11062604	0.01677033	0.047896238	-0.049078253	-0.64433519	0.20520375	0.15105633	0.029131959	0.068366305	0.048169483	-0.59821598	0.20605994	0.063994401	-0.057595359	0.012234105	-0.0084182883	-0.69116685	0.24369459	0.092269744	0.043271084	0.45978173	-0.10049656	-0.25834275	0.43476735	0.20669032	0.038877271	0.46279532	0.025183984	-0.2486545	0.41047123	0.08021972	-0.15251442	0.83520858	-0.14776483	-0.20643242	0.82862251	0.22479981	-0.089481671	0.92443523	-0.078254098	-0.09761739	0.91238791	0.16218903	-0.26401673	0.96708953	0.032161665	-0.11700625	1.3612229	-0.14277487	-0.14511602	1.3895323	0.18758151	-0.19773961	1.4241997	0.018762208	-0.26674429	1.0278465	-0.18993102	-0.27737951	1.0470709	0.27513566	-0.16245352	0.79041649	-0.24568141	-0.10314547	0.83485379	0.2953433
188	0.748	0.16309617	0.015658176	0.002022865	-0.58777694	0.064104155	0.11135239	0.017027337	0.047757617	-0.049138388	-0.63364174	0.20987119	0.15143426	0.029288337	0.06833046	0.048125366	-0.58728699	0.20935141	0.064614859	-0.057612005	0.012264022	-0.0084996738	-0.679439	0.2498619	0.092717077	0.046870914	0.45921767	-0.10086467	-0.24624632	0.43415373	0.20659824	0.042804823	0.46198586	0.024634593	-0.23533577	0.40953948	0.079972384	-0.14644735	0.83598426	-0.14803245	-0.199401	0.82862618	0.22427846	-0.083121714	0.92551983	-0.079029312	-0.091320261	0.91305253	0.16151716	-0.25704395	0.96813133	0.032224198	-0.10973748	1.3619384	-0.14309276	-0.13793213	1.3903586	0.18721737	-0.19075499	1.4251064	0.018379976	-0.25919368	1.0283836	-0.19056326	-0.27118021	1.0483416	0.27456795	-0.1536994	0.79117732	-0.24563069	-0.098721705	0.83475179	0.2951551
189	0.752	0.1630906	0.015571917	0.0020083317	-0.58115493	0.066538647	0.11220013	0.017323263	0.047653448	-0.049219719	-0.6227526	0.2142779	0.15172591	0.029452292	0.068304262	0.048058711	-0.57608072	0.21261858	0.065130862	-0.057625765	0.012295089	-0.0085766753	-0.66744055	0.2558306	0.093104235	0.050076974	0.45874724	-0.10102242	-0.23341431	0.4336095	0.20634822	0.046207068	0.46127045	0.02412071	-0.22234627	0.4089724	0.079664383	-0.14038552	0.83682214	-0.14828955	-0.19248931	0.82875411	0.22373988	-0.076814765	0.92655403	-0.079734573	-0.08512363	0.9138373	0.16096089	-0.25021335	0.96927815	0.032109767	-0.10249925	1.3627005	-0.14338722	-0.13079769	1.3912314	0.18688786	-0.18382072	1.4261049	0.018049329	-0.25167451	1.0289564	-0.19120027	-0.2648159	1.0496281	0.27402601	-0.1449124	0.7920014	-0.24553492	-0.09425393	0.83472855	0.29498528
190	0.756	0.16307576	0.015511007	0.0019762567	-0.57354349	0.069220293	0.11313238	0.017627366	0.047591703	-0.049303977	-0.61164951	0.21847778	0.15193335	0.029627586	0.068280757	0.047982966	-0.56470743	0.21592813	0.065514931	-0.057637833	0.012325356	-0.008637328	-0.65523784	0.26154983	0.093496076	0.052865764	0.45837801	-0.10105251	-0.22016334	0.43317814	0.20603542	0.049199448	0.46070846	0.023704555	-0.20964195	0.40875013	0.079316422	-0.13431533	0.83773276	-0.14859	-0.18567971	0.82901423	0.22319412	-0.070573498	0.92754119	-0.080367362	-0.079019626	0.91473838	0.16051135	-0.24374426	0.97043749	0.031564085	-0.095282621	1.3635007	-0.14364179	-0.12370635	1.3921572	0.18658561	-0.17694541	1.4271991	0.017761346	-0.24420416	1.0295732	-0.19182209	-0.25829105	1.0509595	0.27352282	-0.13610221	0.79289443	-0.24538951	-0.089756545	0.83478685	0.29482473
